<mxfile host="app.diagrams.net" agent="Mozilla/5.0 (Windows NT 10.0; Win64; x64) AppleWebKit/537.36 (KHTML, like Gecko) Chrome/138.0.0.0 Safari/537.36" version="27.2.0">
  <diagram name="Sitemap" id="diagram-1">
    <mxGraphModel dx="1384" dy="804" grid="1" gridSize="10" guides="1" tooltips="1" connect="1" arrows="1" fold="1" page="1" pageScale="1" pageWidth="900" pageHeight="1600" math="0" shadow="0">
      <root>
        <mxCell id="0" />
        <mxCell id="1" parent="0" />
        <mxCell id="2" value="Trang chủ (Landing Page)" style="rounded=1;whiteSpace=wrap;html=1;fillColor=#dae8fc;strokeColor=#6c8ebf;fontStyle=1;fontSize=14;" parent="1" vertex="1">
          <mxGeometry x="475" y="40" width="220" height="60" as="geometry" />
        </mxCell>
        <mxCell id="3" value="" style="endArrow=classic;html=1;rounded=0;" parent="1" source="2" target="4" edge="1">
          <mxGeometry width="50" height="50" relative="1" as="geometry">
            <mxPoint x="400" y="280" as="sourcePoint" />
            <mxPoint x="325" y="180" as="targetPoint" />
          </mxGeometry>
        </mxCell>
        <mxCell id="4" value="Đăng nhập" style="rounded=1;whiteSpace=wrap;html=1;fillColor=#fff2cc;strokeColor=#d6b656;" parent="1" vertex="1">
          <mxGeometry x="260" y="160" width="140" height="60" as="geometry" />
        </mxCell>
        <mxCell id="5" value="" style="endArrow=classic;html=1;rounded=0;" parent="1" source="2" target="6" edge="1">
          <mxGeometry width="50" height="50" relative="1" as="geometry">
            <mxPoint x="645" y="110" as="sourcePoint" />
            <mxPoint x="785" y="180" as="targetPoint" />
          </mxGeometry>
        </mxCell>
        <mxCell id="6" value="Đăng ký" style="rounded=1;whiteSpace=wrap;html=1;fillColor=#fff2cc;strokeColor=#d6b656;" parent="1" vertex="1">
          <mxGeometry x="770" y="160" width="140" height="60" as="geometry" />
        </mxCell>
        <mxCell id="7" value="" style="endArrow=classic;html=1;rounded=0;" parent="1" source="4" target="8" edge="1">
          <mxGeometry width="50" height="50" relative="1" as="geometry">
            <mxPoint x="330" y="230" as="sourcePoint" />
            <mxPoint x="525" y="320" as="targetPoint" />
          </mxGeometry>
        </mxCell>
        <mxCell id="8" value="Bảng điều khiển (Dashboard)" style="rounded=1;whiteSpace=wrap;html=1;fillColor=#d5e8d4;strokeColor=#82b366;fontStyle=1;fontSize=14;" parent="1" vertex="1">
          <mxGeometry x="475" y="320" width="220" height="60" as="geometry" />
        </mxCell>
        <mxCell id="9" value="" style="endArrow=classic;html=1;rounded=0;" parent="1" source="6" target="8" edge="1">
          <mxGeometry width="50" height="50" relative="1" as="geometry">
            <mxPoint x="840" y="230" as="sourcePoint" />
            <mxPoint x="645" y="320" as="targetPoint" />
          </mxGeometry>
        </mxCell>
        <mxCell id="10" value="" style="endArrow=classic;html=1;rounded=0;exitX=0.5;exitY=1;exitDx=0;exitDy=0;" parent="1" source="8" target="11" edge="1">
          <mxGeometry width="50" height="50" relative="1" as="geometry">
            <mxPoint x="585" y="390" as="sourcePoint" />
            <mxPoint x="585" y="480" as="targetPoint" />
          </mxGeometry>
        </mxCell>
        <mxCell id="11" value="Danh sách Dự án" style="rounded=1;whiteSpace=wrap;html=1;fillColor=#e1d5e7;strokeColor=#9673a6;" parent="1" vertex="1">
          <mxGeometry x="495" y="480" width="180" height="60" as="geometry" />
        </mxCell>
        <mxCell id="12" value="" style="endArrow=classic;html=1;rounded=0;" parent="1" source="11" target="13" edge="1">
          <mxGeometry width="50" height="50" relative="1" as="geometry">
            <mxPoint x="585" y="550" as="sourcePoint" />
            <mxPoint x="585" y="620" as="targetPoint" />
          </mxGeometry>
        </mxCell>
        <mxCell id="13" value="Chi tiết Dự án" style="rounded=1;whiteSpace=wrap;html=1;fillColor=#e1d5e7;strokeColor=#9673a6;" parent="1" vertex="1">
          <mxGeometry x="495" y="620" width="180" height="60" as="geometry" />
        </mxCell>
        <mxCell id="14" value="Kanban Board" style="rounded=1;whiteSpace=wrap;html=1;fillColor=#f8cecc;strokeColor=#b85450;" parent="1" vertex="1">
          <mxGeometry x="200" y="760" width="140" height="60" as="geometry" />
        </mxCell>
        <mxCell id="15" value="Gantt Chart" style="rounded=1;whiteSpace=wrap;html=1;fillColor=#f8cecc;strokeColor=#b85450;" parent="1" vertex="1">
          <mxGeometry x="380" y="760" width="140" height="60" as="geometry" />
        </mxCell>
        <mxCell id="16" value="Quản lý Tài liệu" style="rounded=1;whiteSpace=wrap;html=1;fillColor=#f8cecc;strokeColor=#b85450;" parent="1" vertex="1">
          <mxGeometry x="560" y="760" width="140" height="60" as="geometry" />
        </mxCell>
        <mxCell id="17" value="Quản Lý Dự Án" style="rounded=1;whiteSpace=wrap;html=1;fillColor=#f8cecc;strokeColor=#b85450;labelBackgroundColor=none;" parent="1" vertex="1">
          <mxGeometry x="740" y="760" width="140" height="60" as="geometry" />
        </mxCell>
        <mxCell id="18" value="" style="endArrow=classic;html=1;rounded=0;exitX=0.5;exitY=1;exitDx=0;exitDy=0;" parent="1" source="13" target="14" edge="1">
          <mxGeometry width="50" height="50" relative="1" as="geometry">
            <mxPoint x="585" y="690" as="sourcePoint" />
            <mxPoint x="270" y="750" as="targetPoint" />
            <Array as="points">
              <mxPoint x="585" y="710" />
              <mxPoint x="270" y="710" />
            </Array>
          </mxGeometry>
        </mxCell>
        <mxCell id="19" value="" style="endArrow=classic;html=1;rounded=0;exitX=0.5;exitY=1;exitDx=0;exitDy=0;" parent="1" source="13" target="15" edge="1">
          <mxGeometry width="50" height="50" relative="1" as="geometry">
            <mxPoint x="595" y="690" as="sourcePoint" />
            <mxPoint x="450" y="750" as="targetPoint" />
            <Array as="points">
              <mxPoint x="585" y="710" />
              <mxPoint x="450" y="710" />
            </Array>
          </mxGeometry>
        </mxCell>
        <mxCell id="20" value="" style="endArrow=classic;html=1;rounded=0;exitX=0.5;exitY=1;exitDx=0;exitDy=0;" parent="1" source="13" target="16" edge="1">
          <mxGeometry width="50" height="50" relative="1" as="geometry">
            <mxPoint x="595" y="690" as="sourcePoint" />
            <mxPoint x="630" y="750" as="targetPoint" />
            <Array as="points">
              <mxPoint x="585" y="710" />
              <mxPoint x="630" y="710" />
            </Array>
          </mxGeometry>
        </mxCell>
        <mxCell id="21" value="" style="endArrow=classic;html=1;rounded=0;exitX=0.5;exitY=1;exitDx=0;exitDy=0;" parent="1" source="13" target="17" edge="1">
          <mxGeometry width="50" height="50" relative="1" as="geometry">
            <mxPoint x="595" y="690" as="sourcePoint" />
            <mxPoint x="810" y="750" as="targetPoint" />
            <Array as="points">
              <mxPoint x="585" y="710" />
              <mxPoint x="810" y="710" />
            </Array>
          </mxGeometry>
        </mxCell>
        <mxCell id="22" value="" style="endArrow=classic;html=1;rounded=0;" parent="1" source="8" target="23" edge="1">
          <mxGeometry width="50" height="50" relative="1" as="geometry">
            <mxPoint x="465" y="350" as="sourcePoint" />
            <mxPoint x="295" y="480" as="targetPoint" />
            <Array as="points">
              <mxPoint x="365" y="350" />
              <mxPoint x="365" y="440" />
              <mxPoint x="295" y="440" />
            </Array>
          </mxGeometry>
        </mxCell>
        <mxCell id="23" value="Quản lý Nhóm" style="rounded=1;whiteSpace=wrap;html=1;fillColor=#e1d5e7;strokeColor=#9673a6;" parent="1" vertex="1">
          <mxGeometry x="225" y="480" width="140" height="60" as="geometry" />
        </mxCell>
        <mxCell id="24" value="" style="endArrow=classic;html=1;rounded=0;" parent="1" source="8" target="25" edge="1">
          <mxGeometry width="50" height="50" relative="1" as="geometry">
            <mxPoint x="705" y="350" as="sourcePoint" />
            <mxPoint x="875" y="480" as="targetPoint" />
            <Array as="points">
              <mxPoint x="805" y="350" />
              <mxPoint x="805" y="440" />
              <mxPoint x="875" y="440" />
            </Array>
          </mxGeometry>
        </mxCell>
        <mxCell id="25" value="Hồ sơ &amp; Thanh toán" style="rounded=1;whiteSpace=wrap;html=1;fillColor=#e1d5e7;strokeColor=#9673a6;" parent="1" vertex="1">
          <mxGeometry x="805" y="480" width="140" height="60" as="geometry" />
        </mxCell>
      </root>
    </mxGraphModel>
  </diagram>
</mxfile>
